{"title":"RELOAD.Valentines.Day.2010.SWESUB.DVDRip.XviD.-Zen_Bud","uid":5713360,"size":1479940048,"categoryP":"video","categoryS":"movies","magnet":"?xt=urn:btih:549c91069b88b2086aff8dcfa65653288a2c8691&amp;dn=RELOAD.Valentines.Day.2010.SWESUB.DVDRip.XviD.-Zen_Bud&amp;tr=udp%3A%2F%2Ftracker.openbittorrent.com%3A80&amp;tr=udp%3A%2F%2Fopen.demonii.com%3A1337&amp;tr=udp%3A%2F%2Ftracker.coppersurfer.tk%3A6969&amp;tr=udp%3A%2F%2Fexodus.desync.com%3A6969","seeders":0,"leechers":1,"uploader":null,"files":1,"time":1279988406,"description":"General\nComplete name                    : Valentines.Day.2010.avi\nFormat                           : AVI\nFile size                        : 1.38 GiB\nDuration                         : 2h 4mn\nOverall bit rate                 : 1 582 Kbps\n\nVideo\n\nFormat                           : MPEG-4 Visual\nCodec ID/Hint                    : XviD\nDuration                         : 2h 4mn\nBit rate                         : 1 441 Kbps\nWidth                            : 720 pixels\nHeight                           : 576 pixels\nDisplay aspect ratio             : 16:9\nStream size                      : 1.26 GiB (91%)\nWriting library                  : XviD 1.1.2 (UTC 2006-11-01)\n\nAudio\n\nFormat                           : MPEG Audio\nCodec ID/Hint                    : MP3\nDuration                         : 2h 4mn\nBit rate                         : 128 Kbps\nChannel(s)                       : 2 channels\nSampling rate                    : 48.0 KHz\nStream size                      : 114 MiB (8%)\nWriting library                  : LAME3.98","torrent":{"xt":"urn:btih:549c91069b88b2086aff8dcfa65653288a2c8691","amp;dn":"RELOAD.Valentines.Day.2010.SWESUB.DVDRip.XviD.-Zen_Bud","amp;tr":["udp%3A%2F%2Ftracker.openbittorrent.com%3A80","udp%3A%2F%2Fopen.demonii.com%3A1337","udp%3A%2F%2Ftracker.coppersurfer.tk%3A6969","udp%3A%2F%2Fexodus.desync.com%3A6969"],"infoHash":"549c91069b88b2086aff8dcfa65653288a2c8691","infoHashBuffer":{"type":"Buffer","data":[84,156,145,6,155,136,178,8,106,255,141,207,166,86,83,40,138,44,134,145]},"announce":[],"urlList":[]}}